<svg version="1.1" id="Layer_1" xmlns="http://www.w3.org/2000/svg" xmlns:xlink="http://www.w3.org/1999/xlink" x="0px" y="0px" viewBox="0 0 68.1 62.9" style="enable-background:new 0 0 68.1 62.9;" xml:space="preserve">
 <style type="text/css">
  .st0{fill-rule:evenodd;clip-rule:evenodd;fill:#12ABDB;}
	.st1{fill-rule:evenodd;clip-rule:evenodd;fill:#0070AD;}
 </style>
 <g>
  <path class="st0" d="M52.9,51.8c8.5,0,15.1-6.9,15.2-15.2c-0.6-3.6-1.8-10.2-11.2-10.2c-10.2,0-13.6,14.2-21.9,23.4
		c-0.7,5.2-5.6,9.9-11.8,10.7c1.5,1.6,4.9,2.4,8.9,2.4c7.3,0,16.2-2.2,20.9-6.8c-6.2,0.1-10.2-3.9-10.6-9.4
		C45.5,50.4,48.9,51.8,52.9,51.8">
  </path>
  <path class="st1" d="M68.1,36c-0.2-9.6-4.7-17.6-11.7-24.1C51,7.1,44.7,3.4,38,0.7C37.5,0.4,37,0.2,36.4,0h0
		C28.3,9.8,0,17.1,0,37.6c0,8,5.1,15.5,12.5,18.5c4.3,1.6,8.6,1.7,12.9,0.3c3.8-1.3,7-3.6,9.6-6.5c8.3-9.2,11.7-23.4,21.9-23.4
		c9.3,0,10.6,6.6,11.2,10.2C68.1,36.6,68.1,36.4,68.1,36">
  </path>
 </g>
</svg>